<?xml version="1.0" standalone="no"?><!DOCTYPE svg PUBLIC "-//W3C//DTD SVG 1.1//EN" "http://www.w3.org/Graphics/SVG/1.1/DTD/svg11.dtd"><svg t="1683198940263" class="icon" viewBox="0 0 1024 1024" version="1.1" xmlns="http://www.w3.org/2000/svg" p-id="21972" id="mx_n_1683198940264" xmlns:xlink="http://www.w3.org/1999/xlink" width="200" height="200"><path d="M517.5 394.1c-46 0-83.5 37.5-83.5 83.5s37.5 83.5 83.5 83.5 83.5-37.5 83.5-83.5-37.5-83.5-83.5-83.5z m0 137.3c-29.7 0-53.8-24.1-53.8-53.8s24.1-53.8 53.8-53.8c29.7 0 53.8 24.1 53.8 53.8s-24.1 53.8-53.8 53.8zM281 394.1c-46 0-83.5 37.5-83.5 83.5s37.5 83.5 83.5 83.5 83.5-37.5 83.5-83.5-37.5-83.5-83.5-83.5z m0 137.3c-29.7 0-53.8-24.1-53.8-53.8s24.1-53.8 53.8-53.8 53.8 24.1 53.8 53.8-24.1 53.8-53.8 53.8z" fill="" p-id="21973"></path><path d="M510.5 128.8c-241.9 0-438.8 156.4-438.8 348.7 0 71.4 26.9 139.8 77.8 198.3-22 184.8 3.5 197.5 15.9 203.6 3.1 1.5 7 2.7 11.5 2.7 8 0 18-3.6 29.8-15.1 25.9-25.3 59.9-52.2 101.1-80.1 62.2 25.8 132.1 39.3 202.7 39.3 241.9 0 438.8-156.4 438.8-348.7S752.4 128.8 510.5 128.8z" fill="#2469f6" p-id="21974" data-spm-anchor-id="a313x.7781069.0.i7" class="selected"></path><path d="M302 455.5m-62 0a62 62 0 1 0 124 0 62 62 0 1 0-124 0Z" fill="#FFFFFF" p-id="21975"></path><path d="M516 455.5m-62 0a62 62 0 1 0 124 0 62 62 0 1 0-124 0Z" fill="#FFFFFF" p-id="21976"></path><path d="M730 455.5m-62 0a62 62 0 1 0 124 0 62 62 0 1 0-124 0Z" fill="#FFFFFF" p-id="21977"></path></svg>